<svg width="50" height="50" viewBox="0 0 50 50" fill="none" xmlns="http://www.w3.org/2000/svg">
<path d="M13.5415 16.6666C15.2674 16.6666 16.6665 15.2675 16.6665 13.5416C16.6665 11.8157 15.2674 10.4166 13.5415 10.4166C11.8156 10.4166 10.4165 11.8157 10.4165 13.5416C10.4165 15.2675 11.8156 16.6666 13.5415 16.6666Z" fill="white"/>
<path d="M10.4165 20.8333C10.4165 19.6827 11.3493 18.75 12.4998 18.75H14.5832C15.7338 18.75 16.6665 19.6827 16.6665 20.8333V37.5C16.6665 38.6506 15.7338 39.5833 14.5832 39.5833H12.4998C11.3493 39.5833 10.4165 38.6506 10.4165 37.5V20.8333Z" fill="white"/>
<path d="M22.9168 39.5833H25.0002C26.1508 39.5833 27.0835 38.6506 27.0835 37.5V28.125C27.0835 25 33.3335 22.9167 33.3335 27.0833V37.5008C33.3335 38.6515 34.2662 39.5833 35.4168 39.5833H37.5002C38.6508 39.5833 39.5835 38.6506 39.5835 37.5V25C39.5835 20.8333 36.4585 18.75 32.2918 18.75C28.1252 18.75 27.0835 21.875 27.0835 21.875V20.8333C27.0835 19.6827 26.1508 18.75 25.0002 18.75H22.9168C21.7662 18.75 20.8335 19.6827 20.8335 20.8333V37.5C20.8335 38.6506 21.7662 39.5833 22.9168 39.5833Z" fill="white"/>
<path fill-rule="evenodd" clip-rule="evenodd" d="M41.6668 2.08337C45.1187 2.08337 47.9168 4.8816 47.9168 8.33337V41.6667C47.9168 45.1186 45.1187 47.9167 41.6668 47.9167H8.3335C4.88173 47.9167 2.0835 45.1186 2.0835 41.6667V8.33337C2.0835 4.8816 4.88173 2.08337 8.3335 2.08337H41.6668ZM41.6668 6.25004C42.8175 6.25004 43.7502 7.18279 43.7502 8.33337V41.6667C43.7502 42.8173 42.8175 43.75 41.6668 43.75H8.3335C7.18291 43.75 6.25016 42.8173 6.25016 41.6667V8.33337C6.25016 7.18279 7.18291 6.25004 8.3335 6.25004H41.6668Z" fill="white"/>
</svg>
