<svg width="189" height="36" viewBox="0 0 189 36" fill="none" xmlns="http://www.w3.org/2000/svg">
<path d="M13.9959 8.616L15.4539 10.938L2.74594 18.732L20.1519 29.478L18.5319 31.692L0.153937 20.262V17.166L13.9959 8.616ZM18.5319 35.346L16.0839 34.248L32.2839 0.857999L34.6959 2.046L18.5319 35.346ZM53.0599 4.818C54.6799 4.818 56.0359 5.022 57.1279 5.43C58.2199 5.838 59.2579 6.438 60.2419 7.23L58.4959 9.264C57.7159 8.604 56.8879 8.136 56.0119 7.86C55.1479 7.572 54.2419 7.428 53.2939 7.428C51.9379 7.428 50.6839 7.752 49.5319 8.4C48.3799 9.036 47.4499 10.098 46.7419 11.586C46.0459 13.062 45.6979 15.066 45.6979 17.598C45.6979 20.058 46.0279 22.032 46.6879 23.52C47.3599 25.008 48.2659 26.082 49.4059 26.742C50.5459 27.402 51.8179 27.732 53.2219 27.732C54.6139 27.732 55.7539 27.522 56.6419 27.102C57.5419 26.682 58.3219 26.202 58.9819 25.662L60.6019 27.714C59.8459 28.446 58.8619 29.082 57.6499 29.622C56.4379 30.15 54.9499 30.414 53.1859 30.414C51.1819 30.414 49.3639 29.922 47.7319 28.938C46.1119 27.954 44.8279 26.514 43.8799 24.618C42.9319 22.71 42.4579 20.37 42.4579 17.598C42.4579 14.814 42.9379 12.474 43.8979 10.578C44.8699 8.682 46.1599 7.248 47.7679 6.276C49.3879 5.304 51.1519 4.818 53.0599 4.818ZM72.5938 10.65C74.3818 10.65 75.8758 11.058 77.0758 11.874C78.2878 12.678 79.1938 13.818 79.7938 15.294C80.4058 16.77 80.7118 18.51 80.7118 20.514C80.7118 22.446 80.3998 24.156 79.7758 25.644C79.1518 27.132 78.2338 28.302 77.0218 29.154C75.8218 29.994 74.3338 30.414 72.5578 30.414C70.7818 30.414 69.2878 30.006 68.0758 29.19C66.8638 28.374 65.9458 27.228 65.3218 25.752C64.7098 24.264 64.4038 22.53 64.4038 20.55C64.4038 18.594 64.7158 16.872 65.3398 15.384C65.9638 13.896 66.8818 12.738 68.0938 11.91C69.3178 11.07 70.8178 10.65 72.5938 10.65ZM72.5938 13.116C70.9618 13.116 69.7258 13.722 68.8858 14.934C68.0578 16.134 67.6438 18.006 67.6438 20.55C67.6438 23.046 68.0518 24.9 68.8678 26.112C69.6958 27.324 70.9258 27.93 72.5578 27.93C74.1898 27.93 75.4138 27.324 76.2298 26.112C77.0578 24.9 77.4718 23.034 77.4718 20.514C77.4718 17.994 77.0638 16.134 76.2478 14.934C75.4318 13.722 74.2138 13.116 72.5938 13.116ZM87.1418 30V27.678H90.0938V13.368H87.1418V11.046H92.3978L92.9558 15.528C93.6878 13.968 94.5758 12.762 95.6198 11.91C96.6638 11.058 98.0438 10.632 99.7598 10.632C100.288 10.632 100.756 10.674 101.164 10.758C101.584 10.83 102.01 10.926 102.442 11.046L101.56 13.746C101.164 13.638 100.804 13.56 100.48 13.512C100.156 13.452 99.7838 13.422 99.3638 13.422C97.9118 13.422 96.6638 13.938 95.6198 14.97C94.5758 16.002 93.7418 17.562 93.1178 19.65V27.678H96.9698V30H87.1418ZM99.5258 17.454V13.332L99.8318 11.046H102.442L102.01 17.454H99.5258ZM122.12 25.86C122.12 26.616 122.246 27.168 122.498 27.516C122.75 27.864 123.14 28.122 123.668 28.29L122.93 30.414C122.114 30.306 121.4 30.048 120.788 29.64C120.176 29.22 119.732 28.59 119.456 27.75C118.772 28.626 117.92 29.292 116.9 29.748C115.88 30.192 114.752 30.414 113.516 30.414C111.62 30.414 110.126 29.88 109.034 28.812C107.942 27.744 107.396 26.328 107.396 24.564C107.396 22.608 108.158 21.108 109.682 20.064C111.206 19.02 113.408 18.498 116.288 18.498H119.078V16.914C119.078 15.546 118.676 14.58 117.872 14.016C117.08 13.44 115.976 13.152 114.56 13.152C113.936 13.152 113.204 13.23 112.364 13.386C111.524 13.53 110.612 13.776 109.628 14.124L108.836 11.838C110 11.406 111.092 11.1 112.112 10.92C113.132 10.74 114.104 10.65 115.028 10.65C117.392 10.65 119.162 11.202 120.338 12.306C121.526 13.398 122.12 14.886 122.12 16.77V25.86ZM114.29 28.11C115.226 28.11 116.12 27.876 116.972 27.408C117.824 26.928 118.526 26.268 119.078 25.428V20.55H116.342C114.254 20.55 112.778 20.91 111.914 21.63C111.062 22.35 110.636 23.316 110.636 24.528C110.636 25.704 110.936 26.598 111.536 27.21C112.148 27.81 113.066 28.11 114.29 28.11ZM141.474 3.036L144.498 3.414V30H141.852L141.564 27.498C140.856 28.506 140.04 29.244 139.116 29.712C138.204 30.18 137.226 30.414 136.182 30.414C134.538 30.414 133.182 30 132.114 29.172C131.046 28.344 130.254 27.192 129.738 25.716C129.222 24.228 128.964 22.506 128.964 20.55C128.964 18.654 129.258 16.962 129.846 15.474C130.434 13.974 131.28 12.798 132.384 11.946C133.5 11.082 134.838 10.65 136.398 10.65C137.49 10.65 138.45 10.842 139.278 11.226C140.106 11.598 140.838 12.15 141.474 12.882V3.036ZM137.19 13.08C135.606 13.08 134.388 13.698 133.536 14.934C132.684 16.17 132.258 18.042 132.258 20.55C132.258 22.182 132.432 23.55 132.78 24.654C133.128 25.758 133.638 26.586 134.31 27.138C134.994 27.69 135.828 27.966 136.812 27.966C137.892 27.966 138.81 27.66 139.566 27.048C140.334 26.436 140.97 25.746 141.474 24.978V15.51C140.958 14.742 140.334 14.148 139.602 13.728C138.87 13.296 138.066 13.08 137.19 13.08ZM158.938 10.65C160.726 10.65 162.22 11.058 163.42 11.874C164.632 12.678 165.538 13.818 166.138 15.294C166.75 16.77 167.056 18.51 167.056 20.514C167.056 22.446 166.744 24.156 166.12 25.644C165.496 27.132 164.578 28.302 163.366 29.154C162.166 29.994 160.678 30.414 158.902 30.414C157.126 30.414 155.632 30.006 154.42 29.19C153.208 28.374 152.29 27.228 151.666 25.752C151.054 24.264 150.748 22.53 150.748 20.55C150.748 18.594 151.06 16.872 151.684 15.384C152.308 13.896 153.226 12.738 154.438 11.91C155.662 11.07 157.162 10.65 158.938 10.65ZM158.938 13.116C157.306 13.116 156.07 13.722 155.23 14.934C154.402 16.134 153.988 18.006 153.988 20.55C153.988 23.046 154.396 24.9 155.212 26.112C156.04 27.324 157.27 27.93 158.902 27.93C160.534 27.93 161.758 27.324 162.574 26.112C163.402 24.9 163.816 23.034 163.816 20.514C163.816 17.994 163.408 16.134 162.592 14.934C161.776 13.722 160.558 13.116 158.938 13.116ZM174.313 8.616L188.156 17.166V20.262L174.494 28.812L172.856 26.58L185.564 18.732L172.856 10.902L174.313 8.616Z" fill="black"/>
</svg>
